<?xml version="1.0" standalone="no"?>
<!DOCTYPE svg PUBLIC "-//W3C//DTD SVG 1.0//EN" "http://www.w3.org/TR/2001/REC-SVG-20010904/DTD/svg10.dtd">
<svg xmlns="http://www.w3.org/2000/svg" xmlns:xlink="http://www.w3.org/1999/xlink" id="body_1" width="341" height="341">

<g transform="matrix(1.3320312 0 0 1.3320312 0 0)">
	<g transform="matrix(0.1 0 -0 -0.1 0 256)">
        <path d="M1533 1949C 1505 1941 1500 1935 1500 1909C 1500 1892 1489 1829 1475 1768C 1444 1630 1443 1594 1470 1580C 1482 1574 1503 1570 1518 1572C 1539 1574 1544 1580 1542 1595C 1540 1606 1534 1618 1528 1621C 1522 1625 1530 1685 1549 1778C 1566 1861 1580 1936 1580 1944C 1580 1962 1578 1962 1533 1949z" stroke="none" fill="#000000" fill-rule="nonzero" />
        <path d="M564 1931C 510 1907 480 1867 480 1821C 480 1772 487 1765 551 1736C 619 1706 629 1688 595 1654C 568 1627 535 1624 485 1644C 451 1658 450 1658 430 1629L430 1629L409 1600L437 1589C 484 1570 547 1567 594 1580C 655 1597 691 1637 697 1694C 704 1751 689 1770 622 1795C 559 1819 547 1836 576 1864C 593 1882 652 1885 679 1870C 693 1863 702 1866 719 1884C 745 1911 736 1922 675 1939C 622 1953 612 1953 564 1931z" stroke="none" fill="#000000" fill-rule="nonzero" />
        <path d="M830 1913C 801 1907 790 1894 790 1864C 790 1851 782 1840 770 1837C 749 1832 742 1794 761 1788C 768 1786 766 1756 754 1697C 738 1614 738 1609 755 1590C 773 1570 813 1564 844 1576C 867 1585 864 1620 841 1620C 830 1620 819 1623 817 1628C 814 1632 819 1670 827 1713C 841 1783 845 1790 866 1790C 879 1790 894 1799 900 1809C 915 1837 913 1840 880 1840C 852 1840 851 1842 860 1866C 872 1896 873 1921 863 1919C 858 1918 844 1915 830 1913z" stroke="none" fill="#000000" fill-rule="nonzero" />
        <path d="M1016 1840C 953 1820 909 1749 907 1663C 906 1616 909 1605 929 1589C 957 1566 998 1565 1027 1585C 1046 1598 1049 1598 1054 1584C 1059 1571 1063 1571 1090 1587C 1114 1601 1120 1610 1115 1627C 1112 1639 1119 1688 1130 1736C 1141 1784 1147 1827 1142 1832C 1129 1845 1048 1850 1016 1840zM1070 1781C 1070 1776 1065 1748 1058 1718C 1045 1659 1026 1630 998 1630C 964 1630 977 1735 1015 1773C 1033 1791 1070 1796 1070 1781z" stroke="none" fill="#000000" fill-rule="nonzero" />
        <path d="M1233 1838C 1217 1830 1210 1818 1210 1799C 1210 1783 1201 1732 1190 1685C 1179 1638 1170 1595 1170 1590C 1170 1584 1185 1580 1204 1580C 1238 1580 1239 1581 1250 1638C 1271 1741 1276 1753 1303 1774C 1346 1806 1352 1786 1330 1685C 1319 1636 1310 1592 1310 1588C 1310 1578 1380 1577 1380 1588C 1380 1592 1389 1637 1400 1689C 1426 1809 1425 1816 1394 1837C 1369 1853 1364 1853 1323 1838C 1285 1824 1278 1824 1273 1836C 1267 1852 1263 1852 1233 1838z" stroke="none" fill="#000000" fill-rule="nonzero" />
        <path d="M1675 1831C 1629 1803 1608 1775 1594 1720C 1564 1602 1645 1535 1755 1587C 1791 1604 1796 1615 1781 1639C 1774 1650 1768 1651 1758 1643C 1718 1612 1660 1624 1660 1663C 1660 1682 1666 1685 1704 1687C 1754 1689 1804 1711 1814 1735C 1822 1758 1821 1802 1812 1817C 1803 1832 1756 1850 1727 1850C 1715 1850 1692 1842 1675 1831zM1748 1768C 1745 1744 1695 1721 1679 1737C 1664 1752 1698 1790 1726 1790C 1746 1790 1751 1786 1748 1768z" stroke="none" fill="#000000" fill-rule="nonzero" />
        <path d="M1893 1842C 1872 1840 1860 1833 1860 1824C 1860 1780 1882 1612 1891 1591C 1903 1563 1885 1539 1840 1520C 1807 1506 1809 1470 1844 1470C 1893 1470 1926 1506 2013 1656C 2124 1848 2121 1840 2076 1840C 2041 1840 2039 1839 1991 1743L1991 1743L1941 1645L1940 1695C 1939 1723 1935 1768 1932 1795C 1925 1844 1925 1845 1893 1842z" stroke="none" fill="#000000" fill-rule="nonzero" />
        <path d="M845 1469C 816 1461 814 1457 793 1358C 737 1095 737 1097 809 1092C 844 1089 850 1092 850 1108C 850 1119 844 1133 836 1139C 822 1151 821 1149 859 1332C 887 1465 886 1479 845 1469z" stroke="none" fill="#000000" fill-rule="nonzero" />
        <path d="M1484 1467C 1456 1459 1452 1453 1446 1411C 1443 1386 1427 1305 1411 1233C 1396 1160 1385 1098 1388 1095C 1391 1092 1406 1090 1421 1090C 1451 1090 1452 1093 1477 1203L1477 1203L1485 1241L1514 1166L1543 1090L1581 1090C 1603 1090 1620 1092 1620 1094C 1620 1097 1605 1132 1586 1173L1586 1173L1552 1248L1601 1296C 1628 1323 1650 1348 1650 1352C 1650 1356 1632 1360 1611 1360C 1576 1360 1568 1355 1534 1310C 1513 1283 1495 1262 1493 1264C 1491 1266 1496 1304 1505 1348C 1514 1392 1520 1439 1518 1452C 1515 1474 1512 1475 1484 1467z" stroke="none" fill="#000000" fill-rule="nonzero" />
        <path d="M501 1403C 462 1225 440 1119 440 1105C 440 1093 454 1090 513 1091C 612 1092 659 1108 687 1149C 715 1190 717 1241 691 1264C 673 1280 673 1282 701 1310C 740 1348 741 1400 704 1429C 682 1446 663 1450 595 1450L595 1450L512 1450L501 1403zM648 1361C 653 1331 628 1310 588 1310C 559 1310 554 1322 566 1368C 572 1387 578 1391 609 1388C 639 1386 646 1381 648 1361zM614 1244C 639 1234 633 1194 604 1171C 570 1144 516 1142 524 1168C 526 1177 531 1200 535 1218C 541 1245 546 1250 570 1250C 586 1250 605 1247 614 1244z" stroke="none" fill="#000000" fill-rule="nonzero" />
        <path d="M1968 1433C 1936 1428 1892 1386 1884 1353C 1880 1339 1883 1317 1889 1303C 1900 1280 1897 1275 1865 1246C 1844 1228 1827 1202 1824 1183C 1819 1156 1823 1146 1848 1120C 1874 1095 1886 1090 1928 1090C 1955 1090 1992 1095 2009 1101C 2033 1110 2044 1110 2053 1101C 2066 1088 2140 1086 2140 1099C 2140 1104 2129 1122 2115 1139C 2091 1167 2090 1171 2103 1197C 2111 1212 2121 1235 2124 1248C 2131 1267 2128 1270 2101 1270C 2077 1270 2069 1265 2064 1245C 2056 1214 2050 1214 2028 1244C 2011 1267 2012 1268 2050 1299C 2082 1325 2090 1338 2090 1364C 2090 1416 2040 1444 1968 1433zM2016 1375C 2023 1359 1996 1310 1980 1310C 1959 1310 1951 1346 1966 1368C 1984 1393 2008 1397 2016 1375zM1974 1193C 1998 1165 2001 1157 1989 1149C 1968 1135 1918 1143 1907 1162C 1894 1182 1912 1230 1932 1229C 1939 1229 1958 1213 1974 1193z" stroke="none" fill="#000000" fill-rule="nonzero" />
        <path d="M1265 1356C 1174 1316 1128 1159 1191 1108C 1217 1086 1281 1085 1320 1105C 1346 1119 1348 1123 1339 1144C 1329 1166 1326 1167 1299 1153C 1282 1145 1263 1141 1255 1144C 1224 1156 1245 1267 1284 1299C 1297 1310 1306 1310 1324 1302C 1344 1293 1351 1295 1366 1311C 1381 1328 1382 1332 1369 1345C 1348 1367 1299 1372 1265 1356z" stroke="none" fill="#000000" fill-rule="nonzero" />
        <path d="M972 1340C 907 1300 871 1158 914 1111C 935 1088 998 1082 1018 1102C 1026 1110 1033 1110 1044 1101C 1065 1084 1114 1115 1107 1142C 1104 1152 1110 1202 1121 1252C 1143 1359 1143 1360 1060 1360C 1022 1360 995 1354 972 1340zM1056 1273C 1042 1196 1030 1165 1010 1152C 981 1134 970 1145 970 1191C 970 1252 1006 1310 1043 1310C 1060 1310 1061 1305 1056 1273z" stroke="none" fill="#000000" fill-rule="nonzero" />
        <path d="M1330 991C 1310 985 1304 976 1297 935C 1289 884 1243 669 1234 638C 1230 623 1235 620 1269 620C 1305 620 1310 623 1310 643C 1310 655 1316 687 1323 714L1323 714L1336 763L1364 691L1392 620L1431 620C 1452 620 1470 622 1470 625C 1470 628 1457 657 1440 690C 1424 723 1410 755 1410 763C 1410 770 1426 792 1446 811C 1466 829 1486 853 1491 863C 1500 878 1496 880 1461 880C 1424 880 1417 875 1383 830C 1363 803 1345 782 1343 784C 1341 786 1346 821 1355 861C 1371 941 1375 1001 1363 999C 1358 998 1344 995 1330 991z" stroke="none" fill="#000000" fill-rule="nonzero" />
        <path d="M505 969C 502 961 487 892 471 814C 454 736 438 661 434 646L434 646L428 620L496 620C 593 620 633 634 673 680C 713 727 730 778 730 848C 730 946 704 970 589 977C 527 982 509 980 505 969zM631 910C 673 887 643 718 592 691C 572 681 520 676 520 684C 520 692 561 886 566 903C 572 922 601 925 631 910z" stroke="none" fill="#000000" fill-rule="nonzero" />
        <path d="M830 868C 789 839 758 782 752 721C 749 681 752 669 773 644C 795 619 805 615 852 615C 921 615 966 641 950 670C 941 687 935 688 919 680C 908 674 885 670 867 672C 840 674 834 680 832 703C 829 729 830 730 880 730C 924 730 936 735 961 759C 1043 841 929 935 830 868zM920 816C 920 796 897 780 868 780C 837 780 833 788 853 812C 875 840 920 843 920 816z" stroke="none" fill="#000000" fill-rule="nonzero" />
        <path d="M1098 874C 1060 854 1020 782 1013 722C 1008 675 1010 669 1038 641C 1073 606 1101 602 1160 626C 1204 644 1204 644 1190 670C 1182 686 1176 687 1152 678C 1104 660 1087 673 1092 723C 1095 747 1104 779 1111 796C 1124 821 1131 825 1168 825C 1200 825 1214 830 1222 844C 1245 885 1156 906 1098 874z" stroke="none" fill="#000000" fill-rule="nonzero" />
        <path d="M1584 871C 1540 844 1510 790 1503 727C 1498 680 1501 670 1523 644C 1545 618 1555 615 1603 616C 1672 616 1716 641 1700 670C 1691 686 1685 688 1670 680C 1642 665 1594 668 1580 685C 1558 712 1576 727 1636 732C 1683 736 1698 742 1717 764C 1785 844 1679 929 1584 871zM1660 830C 1683 815 1659 786 1621 782C 1585 778 1581 791 1610 820C 1632 842 1639 844 1660 830z" stroke="none" fill="#000000" fill-rule="nonzero" />
        <path d="M1813 878C 1795 869 1790 858 1789 826C 1789 803 1781 748 1771 703L1771 703L1753 620L1789 620L1825 620L1842 708C 1860 796 1886 838 1917 826C 1928 822 1960 865 1960 885C 1960 896 1913 889 1894 875C 1869 856 1860 856 1860 875C 1860 892 1844 893 1813 878z" stroke="none" fill="#000000" fill-rule="nonzero" />
	</g>
</g>
</svg>