<?xml version="1.0" standalone="no"?>
<!DOCTYPE svg PUBLIC "-//W3C//DTD SVG 1.0//EN" "http://www.w3.org/TR/2001/REC-SVG-20010904/DTD/svg10.dtd">
<svg xmlns="http://www.w3.org/2000/svg" xmlns:xlink="http://www.w3.org/1999/xlink" id="body_1" width="2500" height="543">

<g transform="matrix(2.8222187 0 0 2.8222187 -47.977715 -10.181385)">
    <path d="M855.963 159.337C 855.963 146.375 866.487 135.85901 879.442 135.85901C 892.404 135.85901 902.914 146.37502 902.914 159.337C 902.914 172.299 892.404 182.809 879.442 182.809C 866.487 182.809 855.963 172.29901 855.963 159.337" stroke="none" fill="#86BC24" fill-rule="nonzero" />
    <path d="M107.195 97.16C 107.195 82.289 104.322 71.256004 98.575 64.06801C 92.82 56.88801 84.104996 53.30101 72.384995 53.30101L72.384995 53.30101L59.919994 53.30101L59.919994 144.23901L69.45799 144.23901C 82.47399 144.23901 92.01199 140.37901 98.08599 132.63501C 104.15199 124.90501 107.19599 113.07701 107.19599 97.16001L107.19599 97.16001L107.195 97.16zM151.651 95.61C 151.651 122.703 144.369 143.58 129.80301 158.233C 115.23801 172.893 94.76301 180.223 68.36901 180.223L68.36901 180.223L17.08501 180.223L17.08501 17.880005L71.95001 17.880005C 97.39801 17.880005 117.04501 24.545006 130.89001 37.867004C 144.72902 51.196007 151.65102 70.435005 151.65102 95.612zM293.70898 180.22L334.51697 180.22L334.51697 17.196L293.70898 17.196zM391.84598 119.411C 391.84598 129.80501 393.20398 137.733 395.916 143.181C 398.633 148.637 403.184 151.361 409.58298 151.361C 415.91498 151.361 420.39197 148.637 423.00098 143.181C 425.60898 137.733 426.90698 129.805 426.90698 119.410995C 426.90698 109.071 425.589 101.271996 422.947 96.007996C 420.297 90.728 415.779 88.086 409.373 88.086C 403.10898 88.086 398.633 90.715996 395.91498 95.946C 393.205 101.184 391.84497 109.003 391.84497 119.410995zM468.443 119.411C 468.443 139.214 463.253 154.663 452.845 165.73601C 442.445 176.81601 427.886 182.36002 409.17 182.36002C 391.22202 182.36002 376.935 176.69402 366.33002 165.36201C 355.712 154.03102 350.406 138.71802 350.406 119.41202C 350.406 99.66902 355.604 84.32902 366.01102 73.39201C 376.41803 62.454014 391.01102 56.986015 409.80103 56.986015C 421.41202 56.986015 431.68402 59.520016 440.58304 64.58102C 449.48904 69.641014 456.36505 76.891014 461.19504 86.334015C 466.03204 95.763016 468.44302 106.79601 468.44302 119.41101zM484.65 180.22L525.46497 180.22L525.46497 59.126L484.64996 59.126zM484.64798 44.477997L525.464 44.477997L525.464 17.189997L484.64798 17.189997zM608.15497 149.334C 613.665 149.334 620.227 147.934 627.883 145.156L627.883 145.156L627.883 175.625C 622.38 178.043 617.149 179.775 612.176 180.801C 607.20404 181.84099 601.36804 182.357 594.69 182.357C 580.987 182.357 571.11 178.913 565.043 172.03699C 559.00305 165.163 555.974 154.60599 555.974 140.35999L555.974 140.35999L555.974 90.43999L541.68 90.43999L541.68 59.136986L555.974 59.136986L555.974 28.211987L597.102 21.058987L597.102 59.135986L623.14197 59.135986L623.14197 90.44099L597.102 90.44099L597.102 137.57399C 597.102 145.41399 600.791 149.33398 608.15497 149.33398zM702.61597 149.334C 708.126 149.334 714.68896 147.934 722.345 145.156L722.345 145.156L722.345 175.625C 716.849 178.043 711.61096 179.775 706.638 180.801C 701.658 181.84099 695.844 182.357 689.152 182.357C 675.44995 182.357 665.57196 178.913 659.518 172.03699C 653.466 165.163 650.43604 154.60599 650.43604 140.35999L650.43604 140.35999L650.43604 90.43999L636.13605 90.43999L636.13605 59.136986L650.43604 59.136986L650.43604 27.743986L691.556 21.058987L691.556 59.135986L717.61005 59.135986L717.61005 90.44099L691.55707 90.44099L691.55707 137.57399C 691.55707 145.41399 695.2461 149.33398 702.61707 149.33398zM773.84296 104.659C 774.39996 98.029 776.29596 93.171 779.52893 90.06699C 782.7769 86.968994 786.7849 85.41999 791.58093 85.41999C 796.81195 85.41999 800.9699 87.15899 804.05396 90.663994C 807.15796 94.148994 808.77496 98.81699 808.90393 104.659zM831.39795 71.26199C 821.6959 61.75199 807.9329 56.988995 790.1279 56.988995C 771.41095 56.988995 757.00793 62.457993 746.9129 73.395C 736.8249 84.33299 731.7779 100.024994 731.7779 120.475C 731.7779 140.277 737.2329 155.549 748.1159 166.269C 759.0059 176.989 774.2979 182.356 793.9919 182.356C 803.44885 182.356 811.5879 181.711 818.4079 180.427C 825.1879 179.157 831.7509 176.86 838.1169 173.545L838.1169 173.545L831.8459 146.255C 827.2199 148.145 822.8179 149.598 818.6599 150.55501C 812.6549 151.949 806.06494 152.64801 798.8899 152.64801C 791.02386 152.64801 784.8149 150.72601 780.2629 146.88101C 775.7109 143.029 773.2859 137.71602 773.0079 130.95001L773.0079 130.95001L845.9559 130.95001L845.9559 112.35601C 845.9559 94.46901 841.1059 80.76601 831.3979 71.26201zM205.81494 104.659C 206.37195 98.029 208.26794 93.171 211.50095 90.06699C 214.74095 86.968994 218.75595 85.41999 223.55995 85.41999C 228.77695 85.41999 232.93495 87.15899 236.02596 90.663994C 239.12996 94.148994 240.73996 98.81699 240.88295 104.659zM263.37595 71.26199C 253.66794 61.75199 239.91095 56.988995 222.09894 56.988995C 203.37595 56.988995 188.98094 62.457993 178.89194 73.395C 168.80394 84.33299 163.74994 100.024994 163.74994 120.475C 163.74994 140.277 169.19794 155.549 180.09494 166.269C 190.97794 176.989 206.26994 182.356 225.96494 182.356C 235.42093 182.356 243.55994 181.711 250.37994 180.427C 257.15994 179.157 263.72293 176.86 270.09494 173.545L270.09494 173.545L263.81793 146.255C 259.19092 148.145 254.78893 149.598 250.63794 150.55501C 244.61993 151.949 238.03694 152.64801 230.86194 152.64801C 223.00194 152.64801 216.78694 150.72601 212.23494 146.88101C 207.67593 143.029 205.25793 137.71602 204.97993 130.95001L204.97993 130.95001L277.92792 130.95001L277.92792 112.35601C 277.92792 94.46901 273.0779 80.76601 263.37592 71.26201" stroke="none" fill="#0F0B0B" fill-rule="nonzero" />
</g>
</svg>