<?xml version="1.0" standalone="no"?>
<!DOCTYPE svg PUBLIC "-//W3C//DTD SVG 1.0//EN" "http://www.w3.org/TR/2001/REC-SVG-20010904/DTD/svg10.dtd">
<svg xmlns="http://www.w3.org/2000/svg" xmlns:xlink="http://www.w3.org/1999/xlink" id="body_1" width="2500" height="658">

<g transform="matrix(15.299879 0 0 15.299879 -0 0.05261551)">
    <path d="M95.1 12L104.5 8.5L95.1 4.9L95.1 0L111.2 6.5L111.2 10.5L95.1 17L95.1 12z" stroke="none" fill="#A100FF" fill-rule="nonzero" />
    <path d="M6.2 43C 2.7999997 43 0 41.3 0 37.5L0 37.5L0 37.3C 0 32.7 4 31.099998 8.9 31.099998L8.9 31.099998L11.2 31.099998L11.2 30.199999C 11.2 28.3 10.4 27.199999 8.4 27.199999C 6.5999994 27.199999 5.7 28.199999 5.5999994 29.599998L5.5999994 29.599998L0.5999994 29.599998C 0.9999994 25.399998 4.299999 23.399998 8.7 23.399998C 13.2 23.399998 16.5 25.299997 16.5 29.999998L16.5 29.999998L16.5 42.6L11.4 42.6L11.4 40.399998C 10.4 41.8 8.7 42.999996 6.2 42.999996L6.2 42.999996L6.2 43zM11.2 36.4L11.2 34.600002L9.1 34.600002C 6.5000005 34.600002 5.2000003 35.300003 5.2000003 37.000004L5.2000003 37.000004L5.2000003 37.200005C 5.2000003 38.500004 6.0000005 39.400005 7.8 39.400005C 9.6 39.300007 11.200001 38.300007 11.200001 36.400005zM28.400002 43C 23.2 43 19.400002 39.8 19.400002 33.4L19.400002 33.4L19.400002 33.100002C 19.400002 26.700003 23.400002 23.300003 28.400002 23.300003C 32.7 23.300003 36.2 25.500004 36.600002 30.400003L36.600002 30.400003L31.600002 30.400003C 31.300003 28.600004 30.300003 27.400003 28.500002 27.400003C 26.300001 27.400003 24.700003 29.200003 24.700003 32.9L24.700003 32.9L24.700003 33.5C 24.700003 37.3 26.100002 39 28.500002 39C 30.300001 39 31.600002 37.7 31.900002 35.6L31.900002 35.6L36.7 35.6C 36.4 40 33.5 43 28.400002 43zM48 43C 42.8 43 39 39.8 39 33.4L39 33.4L39 33.100002C 39 26.700003 43 23.300003 48 23.300003C 52.3 23.300003 55.8 25.500004 56.2 30.400003L56.2 30.400003L51.2 30.400003C 50.9 28.600004 49.9 27.400003 48.100002 27.400003C 45.9 27.400003 44.300003 29.200003 44.300003 32.9L44.300003 32.9L44.300003 33.5C 44.300003 37.3 45.700005 39 48.100002 39C 49.9 39 51.2 37.7 51.500004 35.6L51.500004 35.6L56.300003 35.6C 56.000004 40 53.100002 43 48.000004 43zM67.7 43C 62.299995 43 58.6 39.8 58.6 33.5L58.6 33.5L58.6 33.1C 58.6 26.8 62.5 23.3 67.6 23.3C 72.299995 23.3 76.2 25.9 76.2 32.199997L76.2 32.199997L76.2 34.499996L63.899998 34.499996C 64.1 37.899998 65.6 39.199997 67.799995 39.199997C 69.799995 39.199997 70.899994 38.1 71.299995 36.799995L71.299995 36.799995L76.2 36.799995C 75.6 40.299995 72.6 42.999996 67.7 42.999996zM63.999996 31L71 31C 70.9 28.2 69.6 27 67.5 27C 65.9 27.1 64.4 28 64 31zM79.399994 23.8L84.7 23.8L84.7 26.599998C 85.6 24.8 87.5 23.399998 90.399994 23.399998C 93.799995 23.399998 96.09999 25.499998 96.09999 29.999998L96.09999 29.999998L96.09999 42.6L90.79999 42.6L90.79999 30.8C 90.79999 28.599998 89.89999 27.599998 87.999985 27.599998C 86.19998 27.599998 84.69998 28.699999 84.69998 31.099998L84.69998 31.099998L84.69998 42.6L79.39998 42.6zM105.799995 18.099998L105.799995 23.8L109.399994 23.8L109.399994 27.699999L105.799995 27.699999L105.799995 36.6C 105.799995 38 106.399994 38.699997 107.7 38.699997C 108.5 38.699997 109 38.6 109.5 38.399998L109.5 38.399998L109.5 42.499996C 108.9 42.699997 107.8 42.899998 106.5 42.899998C 102.4 42.899998 100.5 40.999996 100.5 37.199997L100.5 37.199997L100.5 27.699997L98.3 27.699997L98.3 23.799997L100.5 23.799997L100.5 20.299997zM129.2 42.6L124 42.6L124 39.8C 123.1 41.6 121.3 43 118.5 43C 115.1 43 112.6 40.9 112.6 36.5L112.6 36.5L112.6 23.8L117.9 23.8L117.9 35.8C 117.9 38 118.8 39 120.6 39C 122.399994 39 123.9 37.8 123.9 35.5L123.9 35.5L123.9 23.8L129.2 23.8zM133.09999 23.8L138.4 23.8L138.4 27.3C 139.5 24.8 141.29999 23.599998 144.09999 23.599998L144.09999 23.599998L144.09999 28.8C 140.49998 28.8 138.4 29.9 138.4 33L138.4 33L138.4 42.7L133.09999 42.7zM154.79999 43C 149.4 43 145.69998 39.8 145.69998 33.5L145.69998 33.5L145.69998 33.1C 145.69998 26.8 149.59998 23.3 154.69998 23.3C 159.39998 23.3 163.29999 25.9 163.29999 32.199997L163.29999 32.199997L163.29999 34.499996L151.09999 34.499996C 151.29999 37.899998 152.79999 39.199997 154.99998 39.199997C 156.99998 39.199997 158.09999 38.1 158.49998 36.799995L158.49998 36.799995L163.39998 36.799995C 162.59998 40.299995 159.69998 42.999996 154.79997 42.999996zM150.99998 31L158.09999 31C 157.99998 28.2 156.7 27 154.59999 27C 152.99998 27.1 151.49998 28 150.99998 31z" stroke="none" fill="#000000" fill-rule="nonzero" />
</g>
</svg>