<?xml version="1.0" standalone="no"?>
<!DOCTYPE svg PUBLIC "-//W3C//DTD SVG 1.0//EN" "http://www.w3.org/TR/2001/REC-SVG-20010904/DTD/svg10.dtd">
<svg xmlns="http://www.w3.org/2000/svg" xmlns:xlink="http://www.w3.org/1999/xlink" id="body_1" width="2500" height="1172">

<g transform="matrix(31.397177 0 0 31.397177 -0 4.492959)">
    <path d="M20.055 7.408C 12.806 7.408 8.361 13.07 8.361 18.785C 8.361 25.665 13.971001 30.161999 20.108 30.161999C 24.182999 30.161999 28.046 28.362999 31.326 25.452L31.326 25.452L31.326 33.972C 27.886 36.036 23.177 37.306 19.526001 37.306C 9.049001 37.306 0.2650013 28.786 0.2650013 18.786C 0.2650013 8.200999 9.100001 0.26399994 19.579 0.26399994C 23.601 0.26399994 28.310001 1.481 31.379002 3.016L31.379002 3.016L31.379002 11.375999C 27.516003 8.8359995 23.601002 7.4069996 20.055 7.4069996L20.055 7.4069996L20.055 7.408zM53.6 37.306C 43.07 37.306 34.18 29.104 34.18 18.786C 34.18 8.36 43.015 0.26399994 54.075 0.26399994C 58.096 0.26399994 63.071 1.3219999 66.14 2.751L66.14 2.751L66.14 11.058001C 62.648 9.048 58.15 7.4080005 54.234 7.4080005C 46.984 7.4080005 42.274002 13.068001 42.274002 18.784C 42.274002 25.504 47.831 30.373001 54.340004 30.373001C 55.715004 30.373001 57.038002 30.267 58.732002 29.632002L58.732002 29.632002L58.732002 22.965002L52.806004 22.965002L52.806004 15.927002L66.352005 15.927002L66.352005 34.660004C 62.488007 36.406002 58.150005 37.306004 53.598007 37.306004zM72.27 36.565L72.27 1.0049973L79.89 1.0049973L79.89 36.565z" stroke="none" fill="#E11937" fill-rule="nonzero" />
</g>
</svg>