<?xml version="1.0" standalone="no"?>
<!DOCTYPE svg PUBLIC "-//W3C//DTD SVG 20010904//EN"
 "http://www.w3.org/TR/2001/REC-SVG-20010904/DTD/svg10.dtd">
<svg version="1.0" xmlns="http://www.w3.org/2000/svg"
 width="492.000000pt" height="492.000000pt" viewBox="0 0 492.000000 492.000000"
 preserveAspectRatio="xMidYMid meet">

<g transform="translate(0.000000,492.000000) scale(0.100000,-0.100000)"
fill="#000000" stroke="none">
<path d="M0 2460 l0 -2460 2460 0 2460 0 0 2460 0 2460 -2460 0 -2460 0 0
-2460z m2632 1475 c224 -39 444 -153 607 -314 430 -427 469 -1105 90 -1576
-171 -212 -423 -362 -699 -416 -85 -17 -315 -17 -407 0 l-73 13 0 699 0 700
303 -3 302 -3 52 -29 c71 -39 110 -85 123 -143 6 -26 16 -66 21 -88 19 -80
-32 -239 -99 -308 -62 -65 -122 -89 -234 -95 l-98 -4 -2 298 -3 299 -145 0
-145 0 0 -435 0 -435 180 -3 c364 -6 502 31 639 172 69 71 131 170 162 262 24
68 28 95 28 194 0 134 -17 210 -72 314 -44 85 -95 139 -186 200 -129 85 -126
85 -656 88 l-465 3 -3 -779 c-2 -727 -3 -778 -19 -772 -44 17 -183 129 -256
206 -211 222 -317 493 -317 807 0 142 13 231 55 363 130 409 499 722 935 793
65 11 304 6 382 -8z m-673 -3013 c58 -43 66 -65 66 -185 0 -127 -13 -164 -68
-197 -46 -29 -133 -27 -178 3 -54 36 -69 77 -69 187 1 137 24 184 109 211 37
12 112 2 140 -19z m378 2 c61 -45 68 -66 68 -187 0 -95 -3 -117 -20 -147 -57
-96 -218 -101 -275 -7 -17 27 -20 51 -20 148 0 104 2 120 23 150 33 49 80 71
145 66 32 -2 63 -12 79 -23z m386 -3 c49 -30 57 -57 57 -195 0 -111 -2 -126
-22 -151 -33 -43 -76 -55 -188 -55 l-100 0 0 208 c0 115 3 212 8 216 4 5 53 6
109 3 80 -4 109 -9 136 -26z m355 9 c65 -30 85 -81 80 -215 -3 -112 -13 -135
-72 -179 -39 -30 -128 -29 -177 2 -59 36 -71 74 -67 207 2 95 6 118 23 141 47
62 133 80 213 44z m369 1 c44 -21 73 -62 73 -106 0 -22 -4 -25 -37 -25 -33 0
-40 5 -53 33 -20 42 -68 57 -105 33 -52 -34 -28 -67 80 -107 82 -31 115 -65
115 -121 0 -79 -49 -118 -150 -118 -92 0 -146 35 -157 104 l-6 36 42 0 c35 0
43 -4 51 -24 11 -30 39 -46 79 -46 31 0 61 22 61 45 0 15 -46 55 -64 55 -6 0
-39 13 -74 30 -51 24 -66 36 -78 67 -48 114 91 203 223 144z m221 -199 l2
-213 -42 3 -43 3 -3 200 c-1 110 0 205 3 213 3 9 18 12 42 10 l38 -3 3 -213z
m285 204 c46 -20 79 -59 80 -98 2 -32 1 -33 -38 -33 -33 0 -40 4 -45 25 -13
56 -130 61 -130 5 0 -29 22 -45 105 -76 78 -29 115 -66 115 -114 0 -88 -58
-130 -172 -123 -66 4 -72 6 -104 41 -23 25 -34 47 -34 67 0 28 2 30 40 30 28
0 40 -4 40 -15 0 -50 104 -76 134 -33 23 33 2 57 -74 85 -111 42 -149 86 -136
156 15 79 128 122 219 83z m-2722 -13 c66 -39 77 -140 20 -197 -27 -27 -38
-31 -108 -35 l-78 -6 -3 -82 -3 -83 -39 0 -40 0 0 210 0 210 111 0 c87 0 117
-4 140 -17z m385 -17 c30 -30 34 -40 34 -86 0 -46 -4 -56 -35 -87 -40 -40 -40
-43 6 -135 16 -32 29 -62 29 -68 0 -5 -17 -10 -38 -10 l-38 0 -41 90 c-39 85
-43 90 -72 90 l-31 0 0 -90 0 -90 -40 0 -40 0 0 210 0 210 116 0 116 0 34 -34z
m-598 -483 c3 -18 -2 -23 -17 -23 -14 0 -21 -6 -21 -20 0 -11 -4 -20 -10 -20
-5 0 -10 21 -10 46 0 44 1 45 28 42 19 -2 28 -9 30 -25z m116 10 c4 -9 2 -21
-3 -26 -7 -7 -7 -16 0 -29 6 -11 6 -18 0 -18 -5 0 -13 9 -16 20 -3 11 -11 20
-16 20 -5 0 -9 -9 -9 -20 0 -11 -4 -20 -10 -20 -5 0 -10 20 -10 45 0 43 1 45
29 45 18 0 31 -6 35 -17z m111 -28 c0 -43 -22 -58 -50 -35 -32 27 -10 84 30
78 16 -2 20 -11 20 -43z m113 25 c4 -12 3 -13 -10 -3 -19 16 -28 7 -28 -29 0
-28 13 -37 25 -18 3 6 1 10 -4 10 -6 0 -11 5 -11 10 0 6 7 10 16 10 10 0 14
-7 12 -22 -2 -17 -10 -23 -28 -23 -20 0 -26 6 -28 28 -2 16 -1 35 2 44 7 18
48 13 54 -7z m116 3 c4 -9 2 -21 -3 -26 -7 -7 -7 -16 0 -29 6 -11 6 -18 0 -18
-5 0 -13 9 -16 20 -3 11 -11 20 -16 20 -5 0 -9 -9 -9 -20 0 -11 -4 -20 -10
-20 -5 0 -10 20 -10 45 0 43 1 45 29 45 18 0 31 -6 35 -17z m97 8 c-30 -8 -40
-31 -14 -32 16 -1 16 -2 1 -6 -28 -7 -21 -31 10 -36 25 -4 25 -4 -5 -6 -33 -1
-33 0 -33 44 0 44 1 45 33 44 29 -1 29 -2 8 -8z m119 -6 c8 -9 9 -15 2 -15 -6
0 -14 5 -17 10 -4 6 -11 7 -17 4 -6 -4 1 -16 18 -29 16 -12 24 -27 20 -33 -9
-15 -53 -16 -61 -1 -11 17 3 23 20 9 9 -7 19 -10 23 -6 4 4 -5 16 -20 27 -16
12 -25 26 -21 34 7 19 37 19 53 0z m110 0 c8 -9 9 -15 2 -15 -6 0 -14 5 -17
10 -4 6 -11 7 -17 4 -6 -4 1 -16 18 -29 16 -12 24 -27 20 -33 -9 -15 -53 -16
-61 -1 -11 17 3 23 20 9 9 -7 19 -10 23 -6 4 4 -5 16 -20 27 -16 12 -25 26
-21 34 7 19 37 19 53 0z m67 -52 c-2 -16 -4 -5 -4 22 0 28 2 40 4 28 2 -13 2
-35 0 -50z m80 35 l11 -33 7 33 c4 17 12 32 17 32 5 0 7 -8 4 -17 -3 -10 -8
-30 -12 -45 -11 -47 -25 -36 -48 40 -4 12 -3 22 2 22 5 0 14 -15 19 -32z m138
25 c-34 -8 -42 -23 -15 -30 20 -5 21 -7 6 -13 -24 -8 -22 -24 6 -32 20 -5 18
-6 -9 -7 -32 -1 -33 0 -33 44 0 44 0 45 33 44 21 -1 25 -3 12 -6z m180 -38 c0
-36 -3 -40 -27 -43 -27 -3 -28 -2 -28 43 0 45 1 46 28 43 24 -3 27 -7 27 -43z
m77 8 c2 -21 8 -38 13 -38 6 0 11 17 13 38 4 44 22 50 22 8 0 -44 -10 -61 -35
-61 -25 0 -35 17 -35 61 0 42 18 36 22 -8z m156 17 c4 -12 2 -13 -9 -2 -17 16
-29 15 -29 -2 0 -7 9 -16 21 -19 29 -8 21 -42 -10 -42 -14 0 -27 7 -29 15 -4
13 -3 13 11 2 9 -8 21 -10 28 -6 8 5 3 12 -15 21 -25 13 -33 32 -19 47 12 11
46 2 51 -14z m72 -25 c0 -25 -4 -45 -10 -45 -5 0 -10 20 -10 45 0 25 5 45 10
45 6 0 10 -20 10 -45z m80 18 l14 -28 4 28 c6 44 22 31 22 -18 0 -52 -10 -57
-36 -17 l-18 27 -7 -30 c-6 -26 -7 -23 -8 18 -1 53 9 60 29 20z m135 20 c-34
-8 -42 -23 -15 -30 20 -5 21 -7 6 -13 -24 -8 -22 -24 6 -32 20 -5 18 -6 -9 -7
-32 -1 -33 0 -33 44 0 44 0 45 33 44 21 -1 25 -3 12 -6z m120 -4 c11 -16 -3
-23 -19 -10 -10 8 -16 9 -21 1 -3 -5 6 -15 20 -20 17 -7 25 -16 23 -28 -4 -21
-49 -23 -56 -2 -5 13 -3 13 12 1 9 -8 20 -11 24 -7 4 4 -4 15 -17 25 -16 12
-22 24 -18 35 7 18 42 22 52 5z m110 0 c11 -16 -3 -23 -19 -10 -10 8 -16 9
-21 1 -3 -5 6 -15 20 -20 17 -7 25 -16 23 -28 -4 -21 -49 -23 -56 -2 -5 13 -3
13 12 1 9 -8 20 -11 24 -7 4 4 -4 15 -17 25 -16 12 -22 24 -18 35 7 18 42 22
52 5z m173 -9 c4 -12 2 -13 -9 -2 -17 16 -29 15 -29 -2 0 -7 9 -16 21 -19 29
-8 21 -42 -10 -42 -14 0 -27 7 -29 15 -4 13 -3 13 11 2 9 -8 21 -10 28 -6 8 5
3 12 -15 21 -25 13 -33 32 -19 47 12 11 46 2 51 -14z m112 -6 c13 -34 -4 -66
-33 -62 -23 3 -35 43 -23 74 9 24 46 16 56 -12z m98 -57 c24 -4 24 -4 -5 -6
l-33 -1 2 48 1 47 4 -42 c4 -36 7 -42 31 -46z m84 46 c2 -21 8 -38 13 -38 6 0
11 17 13 38 4 44 22 50 22 8 0 -44 -10 -61 -35 -61 -25 0 -35 17 -35 61 0 42
18 36 22 -8z m146 26 c-12 -6 -19 -24 -20 -47 l-1 -37 -4 35 c-2 19 -11 41
-20 48 -14 10 -11 12 23 12 31 -1 36 -3 22 -11z m69 -56 c-2 -16 -4 -5 -4 22
0 28 2 40 4 28 2 -13 2 -35 0 -50z m118 22 c0 -43 -22 -58 -50 -35 -32 27 -10
84 30 78 16 -2 20 -11 20 -43z m87 18 l17 -28 1 28 c0 15 5 27 10 27 6 0 10
-20 10 -45 0 -51 -13 -58 -34 -17 l-15 27 -1 -27 c0 -16 -4 -28 -10 -28 -5 0
-10 20 -10 45 0 52 8 56 32 18z m146 7 c4 -12 2 -13 -9 -2 -17 16 -29 15 -29
-2 0 -7 9 -16 21 -19 29 -8 21 -42 -10 -42 -14 0 -27 7 -29 15 -4 13 -3 13 11
2 9 -8 21 -10 28 -6 8 5 3 12 -15 21 -25 13 -33 32 -19 47 12 11 46 2 51 -14z"/>
<path d="M1819 861 c-22 -17 -24 -29 -28 -111 -2 -56 2 -102 9 -120 14 -34 59
-53 93 -41 45 17 52 38 52 143 0 97 -1 100 -28 124 -34 29 -67 31 -98 5z"/>
<path d="M2211 866 c-34 -19 -39 -38 -40 -137 -1 -105 17 -139 75 -139 61 0
74 25 74 139 0 80 -3 103 -17 119 -24 28 -62 35 -92 18z"/>
<path d="M2560 730 l0 -140 45 0 c36 0 52 6 71 25 25 25 26 30 22 126 -4 117
-12 129 -90 129 l-48 0 0 -140z"/>
<path d="M2970 867 c-41 -21 -51 -53 -47 -149 4 -102 19 -128 74 -128 60 0 73
25 73 143 0 86 -3 106 -17 119 -27 24 -55 29 -83 15z"/>
<path d="M1060 810 l0 -60 55 0 c62 0 95 22 95 63 0 39 -30 57 -93 57 l-57 0
0 -60z"/>
<path d="M1430 815 l0 -55 53 0 c60 0 87 19 87 61 0 38 -19 49 -82 49 l-58 0
0 -55z"/>
<path d="M980 426 c0 -9 7 -16 16 -16 17 0 14 22 -4 28 -7 2 -12 -3 -12 -12z"/>
<path d="M1090 426 c0 -9 7 -16 16 -16 9 0 14 5 12 12 -6 18 -28 21 -28 4z"/>
<path d="M1204 426 c-8 -21 -1 -49 14 -54 8 -2 12 7 12 27 0 33 -17 51 -26 27z"/>
<path d="M1430 426 c0 -9 7 -16 16 -16 9 0 14 5 12 12 -6 18 -28 21 -28 4z"/>
<path d="M2226 432 c-3 -6 -1 -14 5 -17 15 -10 25 3 12 16 -7 7 -13 7 -17 1z"/>
<path d="M2225 391 c-7 -12 12 -24 25 -16 11 7 4 25 -10 25 -5 0 -11 -4 -15
-9z"/>
<path d="M3267 433 c-4 -3 -7 -19 -7 -35 0 -35 23 -34 28 1 4 25 -10 46 -21
34z"/>
<path d="M3774 426 c-8 -21 -1 -49 14 -54 8 -2 12 7 12 27 0 33 -17 51 -26 27z"/>
</g>
</svg>
