<?xml version="1.0" standalone="no"?>
<!DOCTYPE svg PUBLIC "-//W3C//DTD SVG 20010904//EN"
 "http://www.w3.org/TR/2001/REC-SVG-20010904/DTD/svg10.dtd">
<svg version="1.0" xmlns="http://www.w3.org/2000/svg"
 width="256.000000pt" height="256.000000pt" viewBox="0 0 256.000000 256.000000"
 preserveAspectRatio="xMidYMid meet">

<g transform="translate(0.000000,256.000000) scale(0.100000,-0.100000)"
fill="#000000" stroke="none">
<path d="M1533 1949 c-28 -8 -33 -14 -33 -40 0 -17 -11 -80 -25 -141 -31 -138
-32 -174 -5 -188 12 -6 33 -10 48 -8 21 2 26 8 24 23 -2 11 -8 23 -14 26 -6 4
2 64 21 157 17 83 31 158 31 166 0 18 -2 18 -47 5z"/>
<path d="M564 1931 c-54 -24 -84 -64 -84 -110 0 -49 7 -56 71 -85 68 -30 78
-48 44 -82 -27 -27 -60 -30 -110 -10 -34 14 -35 14 -55 -15 l-21 -29 28 -11
c47 -19 110 -22 157 -9 61 17 97 57 103 114 7 57 -8 76 -75 101 -63 24 -75 41
-46 69 17 18 76 21 103 6 14 -7 23 -4 40 14 26 27 17 38 -44 55 -53 14 -63 14
-111 -8z"/>
<path d="M830 1913 c-29 -6 -40 -19 -40 -49 0 -13 -8 -24 -20 -27 -21 -5 -28
-43 -9 -49 7 -2 5 -32 -7 -91 -16 -83 -16 -88 1 -107 18 -20 58 -26 89 -14 23
9 20 44 -3 44 -11 0 -22 3 -24 8 -3 4 2 42 10 85 14 70 18 77 39 77 13 0 28 9
34 19 15 28 13 31 -20 31 -28 0 -29 2 -20 26 12 30 13 55 3 53 -5 -1 -19 -4
-33 -6z"/>
<path d="M1016 1840 c-63 -20 -107 -91 -109 -177 -1 -47 2 -58 22 -74 28 -23
69 -24 98 -4 19 13 22 13 27 -1 5 -13 9 -13 36 3 24 14 30 23 25 40 -3 12 4
61 15 109 11 48 17 91 12 96 -13 13 -94 18 -126 8z m54 -59 c0 -5 -5 -33 -12
-63 -13 -59 -32 -88 -60 -88 -34 0 -21 105 17 143 18 18 55 23 55 8z"/>
<path d="M1233 1838 c-16 -8 -23 -20 -23 -39 0 -16 -9 -67 -20 -114 -11 -47
-20 -90 -20 -95 0 -6 15 -10 34 -10 34 0 35 1 46 58 21 103 26 115 53 136 43
32 49 12 27 -89 -11 -49 -20 -93 -20 -97 0 -10 70 -11 70 0 0 4 9 49 20 101
26 120 25 127 -6 148 -25 16 -30 16 -71 1 -38 -14 -45 -14 -50 -2 -6 16 -10
16 -40 2z"/>
<path d="M1675 1831 c-46 -28 -67 -56 -81 -111 -30 -118 51 -185 161 -133 36
17 41 28 26 52 -7 11 -13 12 -23 4 -40 -31 -98 -19 -98 20 0 19 6 22 44 24 50
2 100 24 110 48 8 23 7 67 -2 82 -9 15 -56 33 -85 33 -12 0 -35 -8 -52 -19z
m73 -63 c-3 -24 -53 -47 -69 -31 -15 15 19 53 47 53 20 0 25 -4 22 -22z"/>
<path d="M1893 1842 c-21 -2 -33 -9 -33 -18 0 -44 22 -212 31 -233 12 -28 -6
-52 -51 -71 -33 -14 -31 -50 4 -50 49 0 82 36 169 186 111 192 108 184 63 184
-35 0 -37 -1 -85 -97 l-50 -98 -1 50 c-1 28 -5 73 -8 100 -7 49 -7 50 -39 47z"/>
<path d="M845 1469 c-29 -8 -31 -12 -52 -111 -56 -263 -56 -261 16 -266 35 -3
41 0 41 16 0 11 -6 25 -14 31 -14 12 -15 10 23 193 28 133 27 147 -14 137z"/>
<path d="M1484 1467 c-28 -8 -32 -14 -38 -56 -3 -25 -19 -106 -35 -178 -15
-73 -26 -135 -23 -138 3 -3 18 -5 33 -5 30 0 31 3 56 113 l8 38 29 -75 29 -76
38 0 c22 0 39 2 39 4 0 3 -15 38 -34 79 l-34 75 49 48 c27 27 49 52 49 56 0 4
-18 8 -39 8 -35 0 -43 -5 -77 -50 -21 -27 -39 -48 -41 -46 -2 2 3 40 12 84 9
44 15 91 13 104 -3 22 -6 23 -34 15z"/>
<path d="M501 1403 c-39 -178 -61 -284 -61 -298 0 -12 14 -15 73 -14 99 1 146
17 174 58 28 41 30 92 4 115 -18 16 -18 18 10 46 39 38 40 90 3 119 -22 17
-41 21 -109 21 l-83 0 -11 -47z m147 -42 c5 -30 -20 -51 -60 -51 -29 0 -34 12
-22 58 6 19 12 23 43 20 30 -2 37 -7 39 -27z m-34 -117 c25 -10 19 -50 -10
-73 -34 -27 -88 -29 -80 -3 2 9 7 32 11 50 6 27 11 32 35 32 16 0 35 -3 44 -6z"/>
<path d="M1968 1433 c-32 -5 -76 -47 -84 -80 -4 -14 -1 -36 5 -50 11 -23 8
-28 -24 -57 -21 -18 -38 -44 -41 -63 -5 -27 -1 -37 24 -63 26 -25 38 -30 80
-30 27 0 64 5 81 11 24 9 35 9 44 0 13 -13 87 -15 87 -2 0 5 -11 23 -25 40
-24 28 -25 32 -12 58 8 15 18 38 21 51 7 19 4 22 -23 22 -24 0 -32 -5 -37 -25
-8 -31 -14 -31 -36 -1 -17 23 -16 24 22 55 32 26 40 39 40 65 0 52 -50 80
-122 69z m48 -58 c7 -16 -20 -65 -36 -65 -21 0 -29 36 -14 58 18 25 42 29 50
7z m-42 -182 c24 -28 27 -36 15 -44 -21 -14 -71 -6 -82 13 -13 20 5 68 25 67
7 0 26 -16 42 -36z"/>
<path d="M1265 1356 c-91 -40 -137 -197 -74 -248 26 -22 90 -23 129 -3 26 14
28 18 19 39 -10 22 -13 23 -40 9 -17 -8 -36 -12 -44 -9 -31 12 -10 123 29 155
13 11 22 11 40 3 20 -9 27 -7 42 9 15 17 16 21 3 34 -21 22 -70 27 -104 11z"/>
<path d="M972 1340 c-65 -40 -101 -182 -58 -229 21 -23 84 -29 104 -9 8 8 15
8 26 -1 21 -17 70 14 63 41 -3 10 3 60 14 110 22 107 22 108 -61 108 -38 0
-65 -6 -88 -20z m84 -67 c-14 -77 -26 -108 -46 -121 -29 -18 -40 -7 -40 39 0
61 36 119 73 119 17 0 18 -5 13 -37z"/>
<path d="M1330 991 c-20 -6 -26 -15 -33 -56 -8 -51 -54 -266 -63 -297 -4 -15
1 -18 35 -18 36 0 41 3 41 23 0 12 6 44 13 71 l13 49 28 -72 28 -71 39 0 c21
0 39 2 39 5 0 3 -13 32 -30 65 -16 33 -30 65 -30 73 0 7 16 29 36 48 20 18 40
42 45 52 9 15 5 17 -30 17 -37 0 -44 -5 -78 -50 -20 -27 -38 -48 -40 -46 -2 2
3 37 12 77 16 80 20 140 8 138 -5 -1 -19 -4 -33 -8z"/>
<path d="M505 969 c-3 -8 -18 -77 -34 -155 -17 -78 -33 -153 -37 -168 l-6 -26
68 0 c97 0 137 14 177 60 40 47 57 98 57 168 0 98 -26 122 -141 129 -62 5 -80
3 -84 -8z m126 -59 c42 -23 12 -192 -39 -219 -20 -10 -72 -15 -72 -7 0 8 41
202 46 219 6 19 35 22 65 7z"/>
<path d="M830 868 c-41 -29 -72 -86 -78 -147 -3 -40 0 -52 21 -77 22 -25 32
-29 79 -29 69 0 114 26 98 55 -9 17 -15 18 -31 10 -11 -6 -34 -10 -52 -8 -27
2 -33 8 -35 31 -3 26 -2 27 48 27 44 0 56 5 81 29 82 82 -32 176 -131 109z
m90 -52 c0 -20 -23 -36 -52 -36 -31 0 -35 8 -15 32 22 28 67 31 67 4z"/>
<path d="M1098 874 c-38 -20 -78 -92 -85 -152 -5 -47 -3 -53 25 -81 35 -35 63
-39 122 -15 44 18 44 18 30 44 -8 16 -14 17 -38 8 -48 -18 -65 -5 -60 45 3 24
12 56 19 73 13 25 20 29 57 29 32 0 46 5 54 19 23 41 -66 62 -124 30z"/>
<path d="M1584 871 c-44 -27 -74 -81 -81 -144 -5 -47 -2 -57 20 -83 22 -26 32
-29 80 -28 69 0 113 25 97 54 -9 16 -15 18 -30 10 -28 -15 -76 -12 -90 5 -22
27 -4 42 56 47 47 4 62 10 81 32 68 80 -38 165 -133 107z m76 -41 c23 -15 -1
-44 -39 -48 -36 -4 -40 9 -11 38 22 22 29 24 50 10z"/>
<path d="M1813 878 c-18 -9 -23 -20 -24 -52 0 -23 -8 -78 -18 -123 l-18 -83
36 0 36 0 17 88 c18 88 44 130 75 118 11 -4 43 39 43 59 0 11 -47 4 -66 -10
-25 -19 -34 -19 -34 0 0 17 -16 18 -47 3z"/>
</g>
</svg>
